<mxfile host="app.diagrams.net" modified="2021-01-26T13:58:17.055Z" agent="5.0 (Windows NT 10.0; Win64; x64) AppleWebKit/537.36 (KHTML, like Gecko) Chrome/87.0.4280.141 Safari/537.36" etag="OotTrPlogYcg5OktJ7ES" version="14.2.7" type="github">
  <diagram id="C5RBs43oDa-KdzZeNtuy" name="Page-1">
    <mxGraphModel dx="868" dy="450" grid="1" gridSize="10" guides="1" tooltips="1" connect="1" arrows="1" fold="1" page="1" pageScale="1" pageWidth="827" pageHeight="1169" math="0" shadow="0">
      <root>
        <mxCell id="WIyWlLk6GJQsqaUBKTNV-0" />
        <mxCell id="WIyWlLk6GJQsqaUBKTNV-1" parent="WIyWlLk6GJQsqaUBKTNV-0" />
        <mxCell id="peZyMMtolKqgcipFOqNc-10" value="Да" style="edgeStyle=orthogonalEdgeStyle;rounded=0;orthogonalLoop=1;jettySize=auto;html=1;" edge="1" parent="WIyWlLk6GJQsqaUBKTNV-1" source="peZyMMtolKqgcipFOqNc-0" target="peZyMMtolKqgcipFOqNc-1">
          <mxGeometry relative="1" as="geometry" />
        </mxCell>
        <mxCell id="peZyMMtolKqgcipFOqNc-0" value="Фонарь не работает" style="rounded=0;whiteSpace=wrap;html=1;" vertex="1" parent="WIyWlLk6GJQsqaUBKTNV-1">
          <mxGeometry x="50" y="50" width="120" height="60" as="geometry" />
        </mxCell>
        <mxCell id="peZyMMtolKqgcipFOqNc-6" value="Да" style="edgeStyle=orthogonalEdgeStyle;rounded=0;orthogonalLoop=1;jettySize=auto;html=1;" edge="1" parent="WIyWlLk6GJQsqaUBKTNV-1" source="peZyMMtolKqgcipFOqNc-1" target="peZyMMtolKqgcipFOqNc-4">
          <mxGeometry relative="1" as="geometry" />
        </mxCell>
        <mxCell id="peZyMMtolKqgcipFOqNc-7" value="Нет" style="edgeStyle=orthogonalEdgeStyle;rounded=0;orthogonalLoop=1;jettySize=auto;html=1;" edge="1" parent="WIyWlLk6GJQsqaUBKTNV-1" source="peZyMMtolKqgcipFOqNc-1" target="peZyMMtolKqgcipFOqNc-2">
          <mxGeometry relative="1" as="geometry" />
        </mxCell>
        <mxCell id="peZyMMtolKqgcipFOqNc-1" value="Фонарь не включен в розетку" style="rhombus;whiteSpace=wrap;html=1;" vertex="1" parent="WIyWlLk6GJQsqaUBKTNV-1">
          <mxGeometry x="60" y="150" width="100" height="100" as="geometry" />
        </mxCell>
        <mxCell id="peZyMMtolKqgcipFOqNc-8" value="Нет" style="edgeStyle=orthogonalEdgeStyle;rounded=0;orthogonalLoop=1;jettySize=auto;html=1;" edge="1" parent="WIyWlLk6GJQsqaUBKTNV-1" source="peZyMMtolKqgcipFOqNc-2" target="peZyMMtolKqgcipFOqNc-3">
          <mxGeometry relative="1" as="geometry" />
        </mxCell>
        <mxCell id="peZyMMtolKqgcipFOqNc-2" value="Лампочка перегорела?" style="rhombus;whiteSpace=wrap;html=1;" vertex="1" parent="WIyWlLk6GJQsqaUBKTNV-1">
          <mxGeometry x="50" y="290" width="120" height="80" as="geometry" />
        </mxCell>
        <mxCell id="peZyMMtolKqgcipFOqNc-3" value="Отнести в ремонт" style="rounded=0;whiteSpace=wrap;html=1;" vertex="1" parent="WIyWlLk6GJQsqaUBKTNV-1">
          <mxGeometry x="50" y="410" width="120" height="60" as="geometry" />
        </mxCell>
        <mxCell id="peZyMMtolKqgcipFOqNc-4" value="Включить в разетку" style="rounded=0;whiteSpace=wrap;html=1;" vertex="1" parent="WIyWlLk6GJQsqaUBKTNV-1">
          <mxGeometry x="280" y="170" width="120" height="60" as="geometry" />
        </mxCell>
        <mxCell id="peZyMMtolKqgcipFOqNc-9" value="Да" style="edgeStyle=orthogonalEdgeStyle;rounded=0;orthogonalLoop=1;jettySize=auto;html=1;" edge="1" parent="WIyWlLk6GJQsqaUBKTNV-1" source="peZyMMtolKqgcipFOqNc-5" target="peZyMMtolKqgcipFOqNc-2">
          <mxGeometry relative="1" as="geometry" />
        </mxCell>
        <mxCell id="peZyMMtolKqgcipFOqNc-5" value="Заменить лампочку" style="rounded=0;whiteSpace=wrap;html=1;" vertex="1" parent="WIyWlLk6GJQsqaUBKTNV-1">
          <mxGeometry x="280" y="300" width="120" height="60" as="geometry" />
        </mxCell>
      </root>
    </mxGraphModel>
  </diagram>
</mxfile>
